<svg width="24" height="24" viewBox="0 0 24 24" fill="none" xmlns="http://www.w3.org/2000/svg">
<path d="M9.28021 14.7207L7.61756 12.3509L5.10441 10.5449C4.91076 11.0554 4.74439 11.494 4.55078 12.0045L6.12963 14.2174L8.27359 15.7273L9.28016 15.6172L9.28021 14.7207Z" fill="#FC6DAE"/>
<path d="M6.25915 17.7407L5.25253 16.1472L3.4423 14.9238C3.2487 15.4343 3.08233 15.8729 2.88867 16.3834L3.80798 17.9346L5.25253 18.7473H6.04936L6.25915 17.7407Z" fill="#FC6DAE"/>
<path d="M8.27344 15.7273L9.81499 17.8554L11.9963 19.4501C12.5067 19.2565 12.9454 19.0901 13.4559 18.8965L11.6182 16.59L9.28005 14.7207C8.92795 15.0728 8.62549 15.3753 8.27344 15.7273Z" fill="#F73D7F"/>
<path d="M5.25391 18.7469L6.11404 20.117L7.61777 21.1107C8.12826 20.9171 8.56687 20.7507 9.07737 20.5571L7.86979 18.8961L6.26052 17.7402C5.90847 18.0923 5.60596 18.3948 5.25391 18.7469Z" fill="#F73D7F"/>
<path d="M10.7892 13.2108L8.77598 10.5449L5.93399 8.35547C5.6701 9.05113 5.3674 9.84923 5.10352 10.5449C5.6087 11.0501 8.77081 14.2122 9.27931 14.7207L10.3362 14.3282L10.7892 13.2108Z" fill="#FFD92E"/>
<path d="M9.2793 14.7208C9.78443 15.226 12.9466 18.3881 13.4551 18.8966C14.1508 18.6327 14.9488 18.33 15.6445 18.0662L13.4551 15.309L10.7892 13.2109C10.3092 13.6909 9.75923 14.2409 9.2793 14.7208Z" fill="#FCBE00"/>
<path d="M10.2859 10.6932H9.2793V9.68659C10.0004 8.96555 10.8857 8.08022 11.2925 7.67331C12.0991 6.86671 12.5434 5.79423 12.5434 4.65342C12.5434 3.5127 12.0992 2.44022 11.2925 1.63357C11.6446 1.28152 11.9471 0.979005 12.2991 0.626953C14.5157 2.84343 14.5336 6.44547 12.2991 8.67998L11.0408 9.93823L10.2859 10.6932Z" fill="#C6EA4B"/>
<path d="M14.3133 14.7209H13.3066V13.7143C14.0045 13.0164 14.6225 12.3984 15.3199 11.701C16.3954 10.6256 17.8253 10.0332 19.3464 10.0332C20.8673 10.0332 22.2973 10.6255 23.3729 11.701C23.0208 12.0531 22.7183 12.3556 22.3663 12.7076C21.5337 11.8751 20.44 11.4588 19.3464 11.4588C18.2527 11.4588 17.1591 11.8751 16.3265 12.7076C15.6296 13.4045 15.0121 14.0221 14.3133 14.7209Z" fill="#55C8FF"/>
<path d="M6.93555 2.11719H8.35913V3.54077H6.93555V2.11719Z" fill="#84DFFF"/>
<path d="M8.35938 4.96289H9.78296V6.38647H8.35938V4.96289Z" fill="#84DFFF"/>
<path d="M18.3242 13.5059H19.7478V14.9294H18.3242V13.5059Z" fill="#92E200"/>
<path d="M21.1716 17.7751C20.6738 17.7751 20.246 17.7751 19.748 17.7751C19.748 17.2773 19.748 16.3516 19.748 16.3516H21.1716V17.7751Z" fill="#92E200"/>
<path d="M21.1719 6.38672H22.5955V7.8103H21.1719V6.38672Z" fill="#55C8FF"/>
<path d="M15.4766 0.693359H16.9001V2.11694H15.4766V0.693359Z" fill="#C6EA4B"/>
<path d="M18.4283 5.57162L19.9377 4.5605L21.0914 2.90852C21.198 2.34374 21.6049 1.94044 22.1652 1.83481L23.2357 1.26253L23.4967 0.503284C23.3206 0.327282 23.1693 0.17605 22.9933 0C22.3087 0.684554 21.5483 0.10283 20.4539 1.19728C19.5779 2.07321 19.7393 2.86207 19.5409 3.33536C19.4272 3.60679 19.1268 3.90717 18.8553 4.02101C18.5164 4.16308 18.0437 4.11904 17.4749 4.38872C16.9342 4.6451 16.4281 5.15105 16.1716 5.69206C15.7807 6.51655 16.0723 6.92099 15.5195 7.47381C15.6955 7.64986 15.8468 7.80109 16.0228 7.9771L16.6886 7.71611L17.3544 6.64552C17.4615 6.07794 17.8616 5.67853 18.4283 5.57162Z" fill="#FC6DAE"/>
<path d="M11.7954 12.2047C11.6457 12.055 6.63694 7.04625 6.48723 6.89648C6.29357 7.40693 6.1272 7.84559 5.93359 8.35604C6.20346 8.62585 10.519 12.9415 10.7888 13.2113L11.7164 13.1323L11.7954 12.2047Z" fill="#FCBE00"/>
<path d="M2.88916 16.3828C2.80764 16.5977 0.081429 23.785 0 23.9997L2.88916 21.7619L5.25302 18.7467C4.96721 18.4609 3.17682 16.6705 2.88916 16.3828Z" fill="#FFD92E"/>
<path d="M8.27348 15.7267C7.85386 15.3071 4.99283 12.4461 4.55067 12.0039C4.24968 12.7974 3.61922 14.4595 3.44336 14.9232C3.78564 15.2655 5.91688 17.3967 6.2602 17.74L7.61745 17.0639L8.27348 15.7267Z" fill="#FFD92E"/>
<path d="M20.2646 4.74296C20.8668 4.14079 20.9465 3.68334 21.0927 2.9082C20.1613 3.83956 19.361 4.6399 18.4297 5.5713C19.1598 5.43354 19.6424 5.36521 20.2646 4.74296Z" fill="#F73D7F"/>
<path d="M24.0008 1.00719C23.8247 0.831188 23.6735 0.679956 23.4975 0.503906C23.0318 0.96956 22.6317 1.36973 22.166 1.83543C22.6507 1.74394 23.2943 1.71367 24.0008 1.00719Z" fill="#F73D7F"/>
<path d="M17.3551 6.64648C16.8893 7.11219 16.4892 7.5124 16.0234 7.97806C16.1994 8.15411 16.3507 8.30534 16.5267 8.48139C17.2097 7.79845 17.2513 7.19608 17.3551 6.64648Z" fill="#F73D7F"/>
<path d="M15.6443 18.065C16.1548 17.8714 16.5934 17.705 17.1039 17.5113C16.9542 17.3616 11.9454 12.3528 11.7957 12.2031C11.4436 12.5552 11.1412 12.8577 10.7891 13.2097C11.0589 13.4796 15.3745 17.7951 15.6443 18.065Z" fill="#FF9000"/>
<path d="M5.25302 18.7461C4.96161 19.0375 0.291455 23.7077 0 23.9991C0.214914 23.9176 7.40216 21.1914 7.61688 21.11C7.33107 20.8241 5.54068 19.0338 5.25302 18.7461Z" fill="#FCBE00"/>
<path d="M6.25977 17.7398C6.60204 18.0821 8.73329 20.2134 9.07661 20.5567C9.87012 20.2557 11.5322 19.6252 11.9959 19.4494C11.5762 19.0298 8.71526 16.1688 8.27305 15.7266C8.02942 15.9702 6.50495 17.4947 6.25977 17.7398Z" fill="#FCBE00"/>
</svg>
